<svg xmlns="http://www.w3.org/2000/svg" style="display: none;"><symbol id="design" viewBox="0 0 512 512"><title>design</title><path style="fill:#8B8992;" d="M299.493,502h-90v-86h90V502z M239.493,482h30v-36h-30L239.493,482L239.493,482z"/><polygon style="fill:#57555C;" points="255.993,446 269.493,446 269.493,482 255.993,482 255.993,502 299.493,502 299.493,416 255.993,416 "/><path style="fill:#9BC9FF;" d="M480.493,376h-449V136h449V376z"/><rect x="255.99" y="136" style="fill:#009AE5;" width="224.5" height="240"/><rect x="179.49" y="482" style="fill:#005ECE;" width="150" height="30"/><path style="fill:#B87FD9;" d="M239.493,376h-90V171h90V376z"/><path style="fill:#8034AD;" d="M239.493,376h-45V171h45V376z"/><path style="fill:#8B8992;" d="M289.686,131H98.301L59.39,0h57.243c20.439,0,44.228,7.314,62.86,20.502V0h149.103L289.686,131z"/><polygon style="fill:#57555C;" points="328.596,0 193.993,0 193.993,131 289.686,131 "/><path style="fill:#E3CEF0;" d="M248.493,201h-108c-24.813,0-45-20.187-45-45v-55h198v55C293.493,180.813,273.306,201,248.493,201z"/><path style="fill:#D5B4E8;" d="M194.493,101v100h54c24.813,0,45-20.187,45-45v-55H194.493z"/><path style="fill:#E0E0E2;" d="M427.705,118.346c-9.131,0-18.141-2.394-26.261-7.082c-12.189-7.038-20.909-18.401-24.551-31.997 c-3.643-13.595-1.774-27.795,5.264-39.984s18.401-20.908,31.997-24.551l50.898-13.638l13.637,50.898 c3.643,13.595,1.774,27.795-5.264,39.984s-18.4,20.909-31.996,24.551C436.89,117.744,432.281,118.346,427.705,118.346z"/><path style="fill:#ACABB1;" d="M478.688,51.992L465.051,1.094h-0.001l-63.606,110.169l0,0c8.12,4.688,17.13,7.083,26.261,7.082 c4.577,0,9.185-0.602,13.724-1.818c13.595-3.643,24.958-12.362,31.996-24.551C480.462,79.787,482.331,65.587,478.688,51.992z"/><path style="fill:#FFE477;" d="M280.915,410.025l-77.942-45l125-216.506l77.942,45L280.915,410.025z"/><rect x="301.424" y="165.518" transform="matrix(-0.866 -0.5 0.5 -0.866 459.1859 704.0723)" style="fill:#FFA733;" width="44.999" height="249.995"/><path style="fill:#FF9A00;" d="M402.462,226.167l-101.036-58.333l87.069-98.688l55.898,32.273L402.462,226.167z"/><polygon style="fill:#E67500;" points="444.393,101.419 416.444,85.283 351.944,197 402.462,226.167 "/><path style="fill:#005ECE;" d="M480.493,446h-449V346h449V446z"/><g> <rect x="255.99" y="346" style="fill:#003F8A;" width="224.5" height="100"/> <rect x="254.49" y="482" style="fill:#003F8A;" width="75" height="30"/> </g></symbol><symbol id="ux" viewBox="0 0 512 512"><title>ux</title><circle style="fill:#FFAF10;" cx="256" cy="256" r="245"/><rect x="174.63" y="379.83" style="fill:#445EA0;" width="108" height="46.17"/><rect x="174.63" y="379.83" style="fill:#2E4C89;" width="19.842" height="46.17"/><path style="fill:#293D7C;" d="M333.134,450c0,2.75-2.25,5-5,5H129.131c-2.75,0-5-2.25-5-5v-20c0-2.75,2.25-5,5-5h199.003 c2.75,0,5,2.25,5,5V450z"/><path style="fill:#1A2B63;" d="M143.973,450v-20c0-2.75,2.25-5,5-5h-19.842c-2.75,0-5,2.25-5,5v20c0,2.75,2.25,5,5,5h19.842 C146.223,455,143.973,452.75,143.973,450z"/><path style="fill:#293D7C;" d="M0,370.834c0,5.5,4.5,10,10,10h300.175v-66.951H0V370.834z"/><path style="fill:#1A2B63;" d="M19.842,370.834v-56.951H0v56.951c0,5.5,4.5,10,10,10h19.842 C24.342,380.834,19.842,376.334,19.842,370.834z"/><path style="fill:#445EA0;" d="M310.175,286.987c0-2.206,1.794-4,4-4h143.09V66.465c0-6.046-4.946-10.992-10.991-10.992H10.992 C4.946,55.473,0,60.419,0,66.465v248.418h310.175V286.987z"/><path style="fill:#EEF6FF;" d="M310.175,286.987c0-2.206,1.794-4,4-4h121.107V82.457c0-2.75-2.25-5-5-5H26.984c-2.75,0-5,2.25-5,5 v205.441c0,2.75,2.25,5,5,5h283.19L310.175,286.987L310.175,286.987z"/><circle style="fill:#445EA0;" cx="228.63" cy="348.21" r="13.911"/><path style="fill:#FFAF10;" d="M416.361,206.376c0,2.75-2.25,5-5,5H252.904c-2.75,0-5-2.25-5-5v-72.718c0-2.75,2.25-5,5-5h158.457 c2.75,0,5,2.25,5,5L416.361,206.376L416.361,206.376z"/><path style="fill:#FF9518;" d="M267.747,206.376v-72.718c0-2.75,2.25-5,5-5h-19.842c-2.75,0-5,2.25-5,5v72.718c0,2.75,2.25,5,5,5 h19.842C269.997,211.376,267.747,209.126,267.747,206.376z"/><g> <path style="fill:#C3DDF4;" d="M299.266,240.121h-43.112c-4.142,0-7.5-3.357-7.5-7.5s3.358-7.5,7.5-7.5h43.112 c4.142,0,7.5,3.357,7.5,7.5S303.408,240.121,299.266,240.121z"/> <path style="fill:#C3DDF4;" d="M299.266,262.916h-43.112c-4.142,0-7.5-3.357-7.5-7.5s3.358-7.5,7.5-7.5h43.112 c4.142,0,7.5,3.357,7.5,7.5S303.408,262.916,299.266,262.916z"/> <path style="fill:#C3DDF4;" d="M351.28,240.121h-32.06c-4.142,0-7.5-3.357-7.5-7.5s3.358-7.5,7.5-7.5h32.06 c4.142,0,7.5,3.357,7.5,7.5S355.422,240.121,351.28,240.121z"/> <path style="fill:#C3DDF4;" d="M351.28,262.916h-32.06c-4.142,0-7.5-3.357-7.5-7.5s3.358-7.5,7.5-7.5h32.06 c4.142,0,7.5,3.357,7.5,7.5S355.422,262.916,351.28,262.916z"/> <path style="fill:#C3DDF4;" d="M411.772,240.121h-40.836c-4.142,0-7.5-3.357-7.5-7.5s3.358-7.5,7.5-7.5h40.836 c4.142,0,7.5,3.357,7.5,7.5S415.914,240.121,411.772,240.121z"/> <path style="fill:#C3DDF4;" d="M411.772,262.916h-40.836c-4.142,0-7.5-3.357-7.5-7.5s3.358-7.5,7.5-7.5h40.836 c4.142,0,7.5,3.357,7.5,7.5S415.914,262.916,411.772,262.916z"/> </g><g> <path style="fill:#EF8318;" d="M359.365,111.084c0,2.75-2.25,5-5,5h-10.999c-2.75,0-5-2.25-5-5v-10.999c0-2.75,2.25-5,5-5h10.999 c2.75,0,5,2.25,5,5V111.084z"/> <path style="fill:#EF8318;" d="M387.363,111.084c0,2.75-2.25,5-5,5h-10.999c-2.75,0-5-2.25-5-5v-10.999c0-2.75,2.25-5,5-5h10.999 c2.75,0,5,2.25,5,5V111.084z"/> <path style="fill:#EF8318;" d="M415.361,111.084c0,2.75-2.25,5-5,5h-10.999c-2.75,0-5-2.25-5-5v-10.999c0-2.75,2.25-5,5-5h10.999 c2.75,0,5,2.25,5,5V111.084z"/> </g><g> <path style="fill:#69CDFF;" d="M190.898,257.005h-9c-4.142,0-7.5-3.357-7.5-7.5s3.358-7.5,7.5-7.5h9c4.142,0,7.5,3.357,7.5,7.5 C198.398,253.648,195.04,257.005,190.898,257.005z"/> <path style="fill:#69CDFF;" d="M156.898,257.005h-9c-4.142,0-7.5-3.357-7.5-7.5s3.358-7.5,7.5-7.5h9c4.142,0,7.5,3.357,7.5,7.5 C164.398,253.648,161.04,257.005,156.898,257.005z"/> <path style="fill:#69CDFF;" d="M122.897,257.005h-9c-4.142,0-7.5-3.357-7.5-7.5s3.358-7.5,7.5-7.5h9c4.142,0,7.5,3.357,7.5,7.5 C130.398,253.648,127.04,257.005,122.897,257.005z"/> <path style="fill:#69CDFF;" d="M88.897,257.005h-9c-4.142,0-7.5-3.357-7.5-7.5s3.358-7.5,7.5-7.5h9c4.142,0,7.5,3.357,7.5,7.5 C96.397,253.648,93.04,257.005,88.897,257.005z"/> <path style="fill:#69CDFF;" d="M220.148,226.106c-4.142,0-7.5-3.357-7.5-7.5v-9c0-4.142,3.358-7.5,7.5-7.5s7.5,3.358,7.5,7.5v9 C227.648,222.749,224.29,226.106,220.148,226.106z"/> <path style="fill:#69CDFF;" d="M220.148,192.106c-4.142,0-7.5-3.357-7.5-7.5v-9c0-4.142,3.358-7.5,7.5-7.5s7.5,3.358,7.5,7.5v9 C227.648,188.749,224.29,192.106,220.148,192.106z"/> <path style="fill:#69CDFF;" d="M220.148,158.106c-4.142,0-7.5-3.357-7.5-7.5v-9c0-4.142,3.358-7.5,7.5-7.5s7.5,3.358,7.5,7.5v9 C227.648,154.749,224.29,158.106,220.148,158.106z"/> <path style="fill:#69CDFF;" d="M50.147,226.106c-4.142,0-7.5-3.357-7.5-7.5v-9c0-4.142,3.358-7.5,7.5-7.5s7.5,3.358,7.5,7.5v9 C57.647,222.749,54.29,226.106,50.147,226.106z"/> <path style="fill:#69CDFF;" d="M50.147,192.106c-4.142,0-7.5-3.357-7.5-7.5v-9c0-4.142,3.358-7.5,7.5-7.5s7.5,3.358,7.5,7.5v9 C57.647,188.749,54.29,192.106,50.147,192.106z"/> <path style="fill:#69CDFF;" d="M50.147,158.106c-4.142,0-7.5-3.357-7.5-7.5v-9c0-4.142,3.358-7.5,7.5-7.5s7.5,3.358,7.5,7.5v9 C57.647,154.749,54.29,158.106,50.147,158.106z"/> <path style="fill:#69CDFF;" d="M190.898,121.005h-9c-4.142,0-7.5-3.357-7.5-7.5s3.358-7.5,7.5-7.5h9c4.142,0,7.5,3.357,7.5,7.5 S195.04,121.005,190.898,121.005z"/> <path style="fill:#69CDFF;" d="M156.898,121.005h-9c-4.142,0-7.5-3.357-7.5-7.5s3.358-7.5,7.5-7.5h9c4.142,0,7.5,3.357,7.5,7.5 S161.04,121.005,156.898,121.005z"/> <path style="fill:#69CDFF;" d="M122.897,121.005h-9c-4.142,0-7.5-3.357-7.5-7.5s3.358-7.5,7.5-7.5h9c4.142,0,7.5,3.357,7.5,7.5 S127.04,121.005,122.897,121.005z"/> <path style="fill:#69CDFF;" d="M88.897,121.005h-9c-4.142,0-7.5-3.357-7.5-7.5s3.358-7.5,7.5-7.5h9c4.142,0,7.5,3.357,7.5,7.5 S93.04,121.005,88.897,121.005z"/> </g><path style="fill:#5DC1D8;" d="M200.148,224.505c0,2.75-2.25,5-5,5h-120c-2.75,0-5-2.25-5-5v-86c0-2.75,2.25-5,5-5h120 c2.75,0,5,2.25,5,5V224.505z"/><path style="fill:#28A5A5;" d="M89.99,224.505v-86c0-2.75,2.25-5,5-5H75.147c-2.75,0-5,2.25-5,5v86c0,2.75,2.25,5,5,5H94.99 C92.24,229.505,89.99,227.255,89.99,224.505z"/><g> <path style="fill:#52BBEF;" d="M234.145,121.009c0,2.75-2.25,5-5,5h-21c-2.75,0-5-2.25-5-5v-21c0-2.75,2.25-5,5-5h21 c2.75,0,5,2.25,5,5V121.009z"/> <path style="fill:#52BBEF;" d="M68.145,123.009c0,2.75-2.25,5-5,5h-21c-2.75,0-5-2.25-5-5v-21c0-2.75,2.25-5,5-5h21 c2.75,0,5,2.25,5,5V123.009z"/> <path style="fill:#52BBEF;" d="M234.145,260.883c0,2.75-2.25,5-5,5h-21c-2.75,0-5-2.25-5-5v-21c0-2.75,2.25-5,5-5h21 c2.75,0,5,2.25,5,5V260.883z"/> <path style="fill:#52BBEF;" d="M68.145,260.883c0,2.75-2.25,5-5,5h-21c-2.75,0-5-2.25-5-5v-21c0-2.75,2.25-5,5-5h21 c2.75,0,5,2.25,5,5V260.883z"/> </g><g> <path style="fill:#1E99D6;" d="M214.167,121.009v-21c0-2.75,2.25-5,5-5h-11.022c-2.75,0-5,2.25-5,5v21c0,2.75,2.25,5,5,5h11.022 C216.417,126.009,214.167,123.759,214.167,121.009z"/> <path style="fill:#1E99D6;" d="M48.167,123.009v-21c0-2.75,2.25-5,5-5H42.145c-2.75,0-5,2.25-5,5v21c0,2.75,2.25,5,5,5h11.022 C50.417,128.009,48.167,125.759,48.167,123.009z"/> <path style="fill:#1E99D6;" d="M214.167,260.883v-21c0-2.75,2.25-5,5-5h-11.022c-2.75,0-5,2.25-5,5v21c0,2.75,2.25,5,5,5h11.022 C216.417,265.883,214.167,263.633,214.167,260.883z"/> <path style="fill:#1E99D6;" d="M48.167,260.883v-21c0-2.75,2.25-5,5-5H42.145c-2.75,0-5,2.25-5,5v21c0,2.75,2.25,5,5,5h11.022 C50.417,265.883,48.167,263.633,48.167,260.883z"/> </g><path style="fill:#5DC1D8;" d="M435.458,366.773c-0.155-0.422-0.143-0.662-0.121-0.74c0.001,0,0.062-0.006,0.119-0.006 c0.114,0,0.313,0.023,0.614,0.134l42.104,15.465v-94.638c0-2.75-2.25-5-5-5h-159c-2.75,0-5,2.25-5,5v114.8c0,2.75,2.25,5,5,5h135.98 L435.458,366.773z"/><path style="fill:#28A5A5;" d="M329.017,401.787v-114.8c0-2.75,2.25-5,5-5h-19.842c-2.75,0-5,2.25-5,5v114.8c0,2.75,2.25,5,5,5 h19.842C331.267,406.787,329.017,404.537,329.017,401.787z"/><path style="fill:#293D7C;" d="M436.415,365.222c-1.647-0.605-2.501,0.248-1.896,1.896l26.365,71.782 c0.605,1.648,2.116,1.98,3.357,0.739l13.997-13.997c1.241-1.241,3.272-1.241,4.515,0l16.128,16.13c1.241,1.241,3.272,1.241,4.514,0 l7.674-7.674c1.241-1.241,1.241-3.273,0-4.514l-16.129-16.129c-1.241-1.241-1.241-3.272,0-4.514l13.996-13.997 c1.242-1.24,0.909-2.751-0.739-3.356L436.415,365.222z"/></symbol><symbol id="programming" viewBox="0 0 512 512"><title>programming</title><circle style="fill:#00C7FF;" cx="256" cy="256" r="256"/><path style="fill:#0093C4;" d="M512,256c0-0.037-0.001-0.073-0.001-0.11L392.127,136.018L100.5,375.982l135.219,135.219 C242.411,511.726,249.173,512,256,512C397.385,512,512,397.385,512,256z"/><polygon style="fill:#9ABADB;" points="392.127,136.018 256,136.018 243.842,349.394 392.127,337.236 "/><g> <polygon style="fill:#D1E8FF;" points="119.873,136.018 119.873,337.236 256,349.394 256,136.018 "/> <polygon style="fill:#D1E8FF;" points="411.5,337.236 256,337.236 243.842,356.609 256,375.982 411.5,375.982 "/> </g><rect x="100.5" y="337.24" style="fill:#F5F5FF;" width="155.5" height="38.747"/><polygon style="fill:#294B6E;" points="373.904,154.24 256,154.24 243.842,236.627 256,319.013 373.904,319.013 "/><rect x="138.1" y="154.24" style="fill:#6283A3;" width="117.9" height="164.77"/><polygon style="fill:#F5F5FF;" points="209.124,284.901 160.85,236.627 209.124,188.353 222.009,201.238 186.62,236.627 222.009,272.016 "/><g> <polygon style="fill:#D1E8FF;" points="302.876,284.901 289.991,272.016 325.38,236.627 289.991,201.238 302.876,188.353 351.15,236.627 "/> <rect x="246.888" y="179.052" transform="matrix(-0.9808 -0.1951 0.1951 -0.9808 460.912 518.6826)" style="fill:#D1E8FF;" width="18.223" height="115.182"/> </g></symbol><symbol id="javascript" viewBox="0 0 512 512"><title>javascript</title><path style="fill:#E4BA42;" d="M512,256c0,33.353-6.374,65.212-17.983,94.438c-6.207,15.632-13.908,30.511-22.936,44.45 c-11.243,17.387-24.545,33.322-39.549,47.449c-8.788,8.286-18.15,15.945-28.035,22.925C361.806,494.707,310.93,512,256,512 s-105.806-17.293-147.498-46.738c-12.372-8.735-23.928-18.526-34.534-29.268C28.233,389.757,0,326.165,0,256 S28.233,122.243,73.968,76.006c11.233-11.368,23.531-21.682,36.728-30.793C151.97,16.697,202.031,0,256,0 s104.03,16.697,145.304,45.213c10.083,6.949,19.634,14.618,28.588,22.925c15.684,14.503,29.539,30.96,41.19,48.974 c9.028,13.939,16.729,28.818,22.936,44.45C505.626,190.788,512,222.647,512,256z"/><g> <path style="fill:#F2F2F2;" d="M391.05,232.97c-7.125-20.664-36.341-20.664-42.04-3.563c-5.7,17.101,13.539,27.076,43.466,37.053 c29.927,9.976,48.454,36.341,44.891,59.854s-13.539,54.154-72.68,54.154c-36.963,0-57.505-23.103-67.714-40.429l33.511-20.138 c0,0,11.401,24.227,32.777,24.227c21.377,0,29.927-7.125,29.927-23.514c0-19.951-69.118-27.076-79.806-61.279 s3.563-82.656,53.441-79.094c31.175,2.227,48.71,17.535,57.478,28.703L391.05,232.97z"/> <path style="fill:#F2F2F2;" d="M235.714,183.805c0,0,0,120.421,0,136.81c0,16.388-14.251,24.94-28.502,22.089 c-14.251-2.85-20.664-19.951-20.664-19.951l-32.777,22.089c0,0,7.125,32.777,52.016,35.628 c44.891,2.85,70.542-24.227,70.542-47.029s0-149.636,0-149.636L235.714,183.805L235.714,183.805z"/> <path style="fill:#F2F2F2;" d="M73.968,45.213v390.781c10.606,10.742,22.162,20.532,34.534,29.268h294.996 c9.885-6.98,19.247-14.639,28.035-22.925H96.893V68.138h374.188v326.75c9.028-13.939,16.729-28.818,22.936-44.45V45.213H73.968z"/> </g><circle style="fill:#3F4A43;" cx="87.855" cy="339.143" r="40.615"/></symbol></svg>